<?xml version="1.0" encoding="utf-8"?>
<!-- Svg Vector Icons : http://www.onlinewebfonts.com/icon -->
<!DOCTYPE svg PUBLIC "-//W3C//DTD SVG 1.1//EN" "http://www.w3.org/Graphics/SVG/1.1/DTD/svg11.dtd">
<svg version="1.1" xmlns="http://www.w3.org/2000/svg" xmlns:xlink="http://www.w3.org/1999/xlink" x="0px" y="0px" viewBox="0 0 1000 1000" enable-background="new 0 0 1000 1000" xml:space="preserve">
<metadata> Svg Vector Icons : http://www.onlinewebfonts.com/icon </metadata>
<g><path d="M482.5,478.7c47.2-35.9,77.8-92.5,77.8-156.3c0-108.5-88-196.5-196.5-196.5s-196.5,88-196.5,196.5c0,64.1,30.8,120.8,78.3,156.7C108.5,531.7,10,672.2,10,837.2c0,20.3,16.5,36.8,36.8,36.8s36.8-16.5,36.8-36.8c0-169.3,126-307,280.8-307c154.8,0,280.8,137.7,280.8,307c0,20.3,16.5,36.8,36.8,36.8c20.3,0,36.8-16.5,36.8-36.8C718.9,671.8,620,531.1,482.5,478.7z M363.8,199.6c67.7,0,122.8,55.1,122.8,122.8s-55.1,122.8-122.8,122.8S241,390.1,241,322.4S296.1,199.6,363.8,199.6z"/><path d="M794,498.8c32-33.4,51.2-78.2,51.2-127.3c0-101.6-82.6-184.2-184.2-184.2c-20.3,0-36.8,16.5-36.8,36.8s16.5,36.8,36.8,36.8c60.9,0,110.5,49.6,110.5,110.5c0,48.3-32.2,91.8-78.4,105.8c-1,0.3-1.8,0.8-2.7,1.1c-0.9,0.4-1.8,0.7-2.6,1.1c-1.6,0.8-3.1,1.7-4.5,2.7c-0.4,0.3-0.8,0.5-1.2,0.8c-1.7,1.2-3.2,2.6-4.7,4.1c-0.1,0.1-0.3,0.3-0.4,0.4c-8.7,9.3-12.4,22.7-8.4,35.7c0.3,1,0.9,1.7,1.3,2.6c0.8,1.9,1.7,3.8,2.7,5.6c1,1.6,2,3.2,3.2,4.6c1.4,1.7,3,3.3,4.7,4.7c1,0.8,1.9,1.6,3,2.3c2.5,1.7,5.2,3.1,8.1,4.2c0.8,0.3,1.6,0.4,2.4,0.6c1.4,0.4,2.8,0.9,4.2,1.1C847,572.8,916.3,662.1,916.3,829.9c0,20.3,16.5,36.8,36.8,36.8s36.8-16.5,36.8-36.8C990,661.5,922.5,548.8,794,498.8z"/></g>
</svg>