<svg id="Слой_1" data-name="Слой 1" xmlns="http://www.w3.org/2000/svg" viewBox="0 0 34 21"><defs><style>.cls-1{fill:#0f172a;}</style></defs><path class="cls-1" d="M6.78,9l-.43-.39a7,7,0,0,1,2-1.59L6.52,6.38Q3.18,5.2,3.18,3.25a2.17,2.17,0,0,1,.24-1,2.6,2.6,0,0,1,.66-.85A4,4,0,0,1,6.83.55,4.9,4.9,0,0,1,9,1a5.1,5.1,0,0,1,1.68,1.34,5.72,5.72,0,0,1,.72,1.09,17.34,17.34,0,0,1,.72,1.69h.36L12.32.49H12a.73.73,0,0,1-.73.59,2.49,2.49,0,0,1-.5-.06L9.67.72A15.2,15.2,0,0,0,8,.28,8.23,8.23,0,0,0,6.65.17,6.72,6.72,0,0,0,2.74,1.31,4.78,4.78,0,0,0,1.29,2.84,3.65,3.65,0,0,0,.76,4.7,3.32,3.32,0,0,0,2.1,7.36a7,7,0,0,0,1.27.78c.53.25,1.28.57,2.27.94a25.6,25.6,0,0,1,2.5,1.06A4.68,4.68,0,0,1,9.41,11a3.39,3.39,0,0,1,.95,2.26,2.73,2.73,0,0,1-1.17,2.26,4.7,4.7,0,0,1-3,.9A5.43,5.43,0,0,1,2,14.48,9,9,0,0,1,.41,11.6H.05l0,4.79H.36a1.05,1.05,0,0,1,1-.56,1.86,1.86,0,0,1,.42,0L3,16.23a12.46,12.46,0,0,0,3.86.59,9.17,9.17,0,0,0,3.82-.73A5.28,5.28,0,0,0,13.07,14a4,4,0,0,0,.58-2,3.75,3.75,0,0,0-1.28-2.81A9.52,9.52,0,0,0,9.15,7.33,6.45,6.45,0,0,0,6.78,9Z"/><path class="cls-1" d="M18.06,12.87a6.43,6.43,0,0,1-6,6.85,6.34,6.34,0,0,1-4.67-1.59L7,18.56a7,7,0,0,0,4.64,1.76l.46,0A7,7,0,0,0,17.26,9.08a4,4,0,0,0-.43.39A6.47,6.47,0,0,1,18.06,12.87Z"/><path class="cls-1" d="M16.27,8a7,7,0,0,0-9.92.63L6.78,9a6.45,6.45,0,0,1,2.37-1.7,6.52,6.52,0,0,1,2.06-.48,6.42,6.42,0,0,1,4.68,1.59,7.8,7.8,0,0,1,.57.58,5.22,5.22,0,0,1,.43-.39A7.25,7.25,0,0,0,16.27,8Z"/><path class="cls-1" d="M20.09,7.41A5.46,5.46,0,0,0,16.46,9l-.09.09a5.35,5.35,0,0,0,.27,7.56l.39-.42a4.78,4.78,0,0,1-.24-6.74l0,0a4,4,0,0,1,.43-.39A4.68,4.68,0,0,1,20.11,8a4.42,4.42,0,0,1,.63,0V7.43A4.66,4.66,0,0,0,20.09,7.41Z"/><path class="cls-1" d="M23.53,9.26A4.76,4.76,0,0,1,23.77,16l.43.4a5.34,5.34,0,0,0-2.76-8.86v.59A4.75,4.75,0,0,1,23.53,9.26Z"/><path class="cls-1" d="M29.63.78v.46A1.54,1.54,0,0,1,31,1.82a4,4,0,0,1,.38,2.05v9.34L22.31.78H18.59v.46A2.28,2.28,0,0,1,20.24,2a3.67,3.67,0,0,1,.5,2.17v9.34a4.39,4.39,0,0,1-.37,2.14,1.54,1.54,0,0,1-1.42.6v.47h4.39v-.47a1.83,1.83,0,0,1-1.46-.51,2.59,2.59,0,0,1-.44-1.69V2.86L31.69,16.75h.45v-13a3.47,3.47,0,0,1,.4-2A1.74,1.74,0,0,1,34,1.24V.78Z"/></svg>