<svg width="16" height="16" viewBox="0 0 16 16" fill="none" xmlns="http://www.w3.org/2000/svg">
<path d="M3.23008 10.6357C4.8082 12.5222 6.70791 14.0075 8.87617 15.0584C9.7017 15.4496 10.8057 15.9138 12.0357 15.9934C12.112 15.9967 12.1849 16 12.2612 16C13.0867 16 13.7498 15.7149 14.2902 15.1281C14.2935 15.1247 14.3001 15.1181 14.3034 15.1115C14.4957 14.8794 14.7145 14.6705 14.9433 14.4484C15.0991 14.2992 15.2583 14.1434 15.4108 13.9843C16.1169 13.2482 16.1169 12.3133 15.4041 11.6005L13.4116 9.60796C13.0734 9.25653 12.669 9.07087 12.2446 9.07087C11.8202 9.07087 11.4124 9.25653 11.0643 9.60464L9.87741 10.7915C9.768 10.7286 9.65528 10.6722 9.54919 10.6191C9.41657 10.5528 9.2939 10.4898 9.1845 10.4202C8.10368 9.73394 7.12233 8.83879 6.18408 7.68835C5.70998 7.08827 5.39171 6.58433 5.16958 6.07045C5.48122 5.78864 5.77298 5.49358 6.05478 5.20514C6.15424 5.10236 6.25702 4.99959 6.3598 4.89681C6.71786 4.53875 6.91015 4.12433 6.91015 3.70327C6.91015 3.28222 6.72117 2.8678 6.3598 2.50974L5.37182 1.52176C5.25578 1.40572 5.14637 1.293 5.03365 1.17696C4.81483 0.951513 4.58607 0.719436 4.36063 0.510568C4.01914 0.175715 3.61798 0 3.19361 0C2.77256 0 2.36809 0.175715 2.01334 0.513883L0.773391 1.75383C0.3225 2.20472 0.0672156 2.75176 0.0141696 3.385C-0.0488225 4.17737 0.097054 5.01948 0.475007 6.0373C1.0552 7.6121 1.93046 9.07418 3.23008 10.6357Z" fill="#D3D3D3"/>
</svg>
