<svg width="20" height="15" viewBox="0 0 20 15" fill="none" xmlns="http://www.w3.org/2000/svg">
<path d="M19.3728 2.8801C19.1833 2.77321 18.9683 2.71977 18.7508 2.72548C18.5332 2.73119 18.3213 2.79584 18.1377 2.91252L17.151 3.5292C16.1622 3.17057 15.1664 2.77085 14.1887 2.33913C13.3826 1.98319 12.7945 1.6969 12.322 1.46686C11.2828 0.960923 10.8082 0.729439 9.9921 0.749985C9.19522 0.769517 8.73241 1.01752 7.96565 1.42811C7.51382 1.67006 6.95147 1.97108 6.12296 2.33928C5.06268 2.81013 3.97216 3.20968 2.85866 3.53526L1.86214 2.91252C1.67848 2.79584 1.46658 2.73119 1.24906 2.72548C1.03154 2.71977 0.816552 2.77321 0.627021 2.8801C0.435921 2.98417 0.276654 3.13816 0.166211 3.32564C0.055768 3.51313 -0.00170905 3.72708 -8.87357e-05 3.94467V7.62499C-0.000743869 7.83155 0.0514827 8.03484 0.151619 8.21551C0.251755 8.39618 0.396469 8.54821 0.571982 8.65713L2.49991 9.86213V10.1843C2.49946 10.413 2.5494 10.6389 2.64618 10.8461C2.74296 11.0533 2.88421 11.2367 3.05987 11.3831C6.38272 14.1554 9.96413 14.1875 9.99991 14.1875C13.1498 14.1875 15.5322 12.6549 16.9762 11.3692C17.1408 11.2225 17.2726 11.0427 17.3628 10.8416C17.4531 10.6404 17.4998 10.4224 17.4999 10.2019V9.98569L19.4278 8.78073C19.6033 8.67182 19.7481 8.51979 19.8482 8.33912C19.9483 8.15845 20.0006 7.95515 19.9999 7.74858V3.94467C20.0015 3.72708 19.9441 3.51313 19.8336 3.32564C19.7232 3.13816 19.5639 2.98417 19.3728 2.8801ZM4.79436 8.58135C6.46238 9.18997 8.22433 9.5009 9.99991 9.49999C11.7755 9.50092 13.5374 9.18998 15.2055 8.58135L15.4194 9.16858C13.6828 9.80224 11.8485 10.126 9.99991 10.125C8.15137 10.1259 6.31702 9.80224 4.58046 9.16862L4.79436 8.58135ZM4.58042 6.35608L4.79436 5.76885C6.46238 6.37747 8.22433 6.6884 9.99991 6.68749C11.7755 6.68842 13.5374 6.37748 15.2055 5.76885L15.4194 6.35608C13.6828 6.98974 11.8485 7.31346 9.99991 7.31249C8.15137 7.31344 6.31702 6.98974 4.58046 6.35612L4.58042 6.35608ZM0.903232 8.1271C0.817845 8.07411 0.747442 8.00015 0.698725 7.91226C0.650007 7.82437 0.624596 7.72547 0.624911 7.62499V3.94467C0.624918 3.83898 0.653216 3.73521 0.706867 3.64414C0.760519 3.55307 0.837568 3.47802 0.930016 3.42679C1.02246 3.37555 1.12694 3.34999 1.2326 3.35277C1.33826 3.35554 1.44126 3.38655 1.53089 3.44256L2.49991 4.04819V9.12499L0.903232 8.1271ZM19.3749 7.74858C19.3752 7.84907 19.3498 7.94797 19.3011 8.03586C19.2524 8.12375 19.182 8.19771 19.0966 8.25069L17.4999 9.24862V4.04819L18.4689 3.44272C18.5586 3.38671 18.6615 3.3557 18.7672 3.35292C18.8728 3.35014 18.9773 3.37569 19.0697 3.4269C19.1622 3.47812 19.2392 3.55315 19.2929 3.64419C19.3466 3.73524 19.3749 3.83899 19.3749 3.94467V7.74858Z" fill="#E5E5E5"/>
</svg>
